<svg xmlns="http://www.w3.org/2000/svg" width="14" height="15" viewBox="0 0 14 15" fill="none">
    <path d="M10.4582 4.87987C10.4582 5.45255 10.2453 5.93714 9.81948 6.33361C9.39363 6.73009 8.75487 7.03846 7.90318 7.25872C8.91639 7.43493 9.67264 7.75432 10.1719 8.21687C10.6712 8.67943 10.9208 9.27781 10.9208 10.012C10.9208 10.8343 10.5977 11.4805 9.95164 11.9504C9.30553 12.4202 8.23357 12.6552 6.73578 12.6552H1.36133V11.8402C1.90465 11.8402 2.26441 11.7558 2.44062 11.5869C2.61683 11.418 2.70494 11.084 2.70494 10.5847V4.63758C2.70494 4.153 2.62051 3.8226 2.45164 3.64639C2.28277 3.47018 1.91933 3.38207 1.36133 3.38207V2.54506L5.30406 2.43493H5.87675C7.65354 2.43493 8.86133 2.6552 9.50009 3.09573C10.1389 3.53625 10.4582 4.13097 10.4582 4.87987ZM5.39217 3.33802V6.81819H5.9208C6.46412 6.81819 6.87528 6.68971 7.15428 6.43273C7.43328 6.17576 7.57278 5.73156 7.57278 5.10013C7.57278 4.63023 7.48468 4.25578 7.30846 3.97678C7.13225 3.69778 6.90465 3.52157 6.62565 3.44815C6.34664 3.37473 5.93548 3.33802 5.39217 3.33802ZM5.87675 7.7433H5.39217V10.6288C5.39217 10.9078 5.42153 11.1207 5.48027 11.2675C5.53901 11.4144 5.65281 11.5355 5.82168 11.631C5.99055 11.7264 6.22917 11.7741 6.53754 11.7741C7.00744 11.7741 7.36353 11.6053 7.60582 11.2675C7.84811 10.9298 7.96926 10.4305 7.96926 9.76973C7.96926 9.22642 7.89216 8.80424 7.73798 8.50321C7.58379 8.20219 7.37087 8.00028 7.09921 7.89749C6.82755 7.7947 6.42006 7.7433 5.87675 7.7433Z" fill="#8A98AC"/>
</svg>
