<svg xmlns="http://www.w3.org/2000/svg" width="14" height="6" viewBox="0 0 14 6" fill="none">
    <g clip-path="url(#clip0_3518_1457)">
        <path d="M3.91016 0.664062C3.79167 0.554687 3.65495 0.5 3.5 0.5C3.34505 0.5 3.21061 0.556966 3.09668 0.670898C2.98275 0.784831 2.92578 0.919271 2.92578 1.07422C2.92578 1.22917 2.98047 1.36589 3.08984 1.48438L6.58984 4.98437C6.70833 5.10286 6.84505 5.16211 7 5.16211C7.15495 5.16211 7.29167 5.10286 7.41016 4.98437L10.9102 1.48437C11.0195 1.36589 11.0742 1.22917 11.0742 1.07422C11.0742 0.919271 11.0173 0.784831 10.9033 0.670898C10.7894 0.556966 10.6549 0.5 10.5 0.5C10.3451 0.5 10.2083 0.554687 10.0898 0.664062L7 3.75391L3.91016 0.664062Z" fill="#8A98AC"/>
    </g>
    <defs>
        <clipPath id="clip0_3518_1457">
            <rect width="5" height="14" fill="white" transform="matrix(0 1 1 0 0 0.5)"/>
        </clipPath>
    </defs>
</svg>
