<svg xmlns="http://www.w3.org/2000/svg" width="14" height="15" viewBox="0 0 14 15" fill="none">
    <path d="M7.55076 10.1101H4.22476L4.02653 10.6388C3.865 11.0059 3.78424 11.2702 3.78424 11.4317C3.78424 11.6813 3.87234 11.8576 4.04855 11.9603C4.22476 12.0631 4.51111 12.1145 4.90758 12.1145V12.9956H1.36133V12.1145C2.03681 12.1145 2.60215 11.5418 3.05736 10.3965L6.38335 2.11453H7.30846L10.7005 10.3965C11.0383 11.2188 11.343 11.7107 11.6146 11.8722C11.8863 12.0338 12.1469 12.1145 12.3966 12.1145V12.9956H7.02212V12.1145C7.5067 12.1145 7.80773 12.0705 7.9252 11.9824C8.04268 11.8943 8.10142 11.7768 8.10142 11.63C8.10142 11.4978 8.05736 11.3363 7.96926 11.1454L7.85913 10.8811L7.55076 10.1101ZM5.83269 6.01321L4.57719 9.20704H7.17631L5.83269 6.01321Z" fill="#8A98AC"/>
</svg>
