<svg xmlns="http://www.w3.org/2000/svg" width="14" height="15" viewBox="0 0 14 15" fill="none">
    <path d="M12.7533 12.198H0.704846C0.51395 12.198 0.348752 12.1283 0.209251 11.9888C0.0697504 11.8493 0 11.6841 0 11.4932V2.70462C0 2.49904 0.0697504 2.33017 0.209251 2.19801C0.348752 2.06586 0.51395 1.99978 0.704846 1.99978H12.7533C12.9442 1.99978 13.1094 2.06586 13.2489 2.19801C13.3884 2.33017 13.4581 2.49904 13.4581 2.70462V11.4932C13.4581 11.6841 13.3884 11.8493 13.2489 11.9888C13.1094 12.1283 12.9442 12.198 12.7533 12.198ZM12.6652 3.56365C12.6652 3.41681 12.6395 3.28832 12.5881 3.17819C12.5367 3.06806 12.478 2.98729 12.4119 2.9359C12.3458 2.8845 12.243 2.84779 12.1035 2.82577C11.964 2.80374 11.8465 2.78906 11.7511 2.78171C11.6557 2.77437 11.5051 2.7707 11.2996 2.7707C11.2115 2.78539 11.138 2.79273 11.0793 2.79273H2.37885C2.32012 2.79273 2.2467 2.78539 2.15859 2.7707C1.95301 2.7707 1.8025 2.77437 1.70705 2.78171C1.6116 2.78906 1.49046 2.80374 1.34361 2.82577C1.19677 2.84779 1.09398 2.8845 1.03524 2.9359C0.976505 2.98729 0.921439 3.06806 0.870044 3.17819C0.818649 3.28832 0.792952 3.41681 0.792952 3.56365V9.84119C0.792952 10.2817 0.947137 10.6525 1.25551 10.9535C1.56388 11.2545 1.93833 11.4051 2.37885 11.4051H11.0793C11.5198 11.4051 11.8943 11.2545 12.2026 10.9535C12.511 10.6525 12.6652 10.2817 12.6652 9.84119V3.56365ZM10.7709 6.00859C10.7709 6.00859 10.7195 6.05631 10.6167 6.15176C10.5139 6.24721 10.3157 6.29493 10.022 6.29493C9.72834 6.29493 9.47871 6.19948 9.27313 6.00859C9.06755 5.81769 8.96476 5.59008 8.96476 5.32577C8.96476 5.06145 9.06755 4.83384 9.27313 4.64295C9.47871 4.45205 9.72834 4.3566 10.022 4.3566C10.3157 4.3566 10.5653 4.45205 10.7709 4.64295C10.9765 4.83384 11.0793 5.06145 11.0793 5.32577C11.0793 5.59008 10.9765 5.81769 10.7709 6.00859ZM10.6167 10.0394C10.7489 10.245 10.815 10.3882 10.815 10.4689C10.815 10.5497 10.7783 10.5974 10.7048 10.6121C10.6314 10.6268 10.4772 10.6341 10.2423 10.6341C10.0661 10.6195 9.92658 10.6121 9.82379 10.6121H3.48018C3.40675 10.6121 3.29662 10.6121 3.14978 10.6121C2.9442 10.6268 2.79736 10.6305 2.70925 10.6231C2.62115 10.6158 2.53671 10.5901 2.45595 10.546C2.37518 10.502 2.34214 10.4359 2.35683 10.3478C2.37151 10.2597 2.42291 10.1275 2.51101 9.95132L4.03084 6.9337C4.22173 6.5519 4.47871 6.34632 4.80176 6.31696C5.12482 6.28759 5.4185 6.45646 5.68282 6.82356L7.18062 8.89405L7.59912 8.07907C7.8047 7.68259 8.06534 7.47702 8.38106 7.46233C8.69677 7.44765 8.97944 7.62386 9.22907 7.99096L10.6167 10.0394Z" fill="#8A98AC"/>
</svg>
