<svg xmlns="http://www.w3.org/2000/svg" width="14" height="15" viewBox="0 0 14 15" fill="none">
    <g clip-path="url(#clip0_3518_1492)">
        <path d="M11.4494 4.35124C12.3305 4.35124 13.0867 4.66328 13.7182 5.28737C14.3496 5.91145 14.6653 6.66402 14.6653 7.54507C14.6653 8.11776 14.5221 8.65007 14.2358 9.14199C13.9494 9.63391 13.5566 10.0194 13.0574 10.2984C12.5581 10.5774 12.0148 10.7169 11.4274 10.7169L9.26882 10.7389C9.13666 10.7389 9.01184 10.7059 8.89437 10.6398C8.77689 10.5737 8.68512 10.4819 8.61904 10.3645C8.55296 10.247 8.51992 10.1222 8.51992 9.99001C8.51992 9.85785 8.55296 9.7367 8.61904 9.62657C8.68512 9.51644 8.77689 9.42833 8.89437 9.36225C9.01184 9.29618 9.13666 9.26314 9.26882 9.26314H11.4274C11.912 9.26314 12.3231 9.09427 12.6609 8.75653C12.9986 8.41879 13.1712 8.0113 13.1785 7.53406C13.1859 7.05682 13.017 6.653 12.6719 6.32261C12.3268 5.99221 11.912 5.82701 11.4274 5.82701H9.26882C9.13666 5.82701 9.01551 5.79397 8.90538 5.72789C8.79525 5.66181 8.70714 5.57371 8.64106 5.46358C8.57498 5.35344 8.54194 5.2323 8.54194 5.10014C8.54194 4.89456 8.61537 4.71835 8.76221 4.57151C8.90905 4.42466 9.08526 4.35124 9.29084 4.35124H11.4494ZM6.71375 9.26314C6.84591 9.26314 6.97073 9.29618 7.0882 9.36225C7.20567 9.42833 7.29745 9.51644 7.36353 9.62657C7.42961 9.7367 7.46265 9.85785 7.46265 9.99001C7.46265 10.1222 7.42961 10.247 7.36353 10.3645C7.29745 10.4819 7.20567 10.5737 7.0882 10.6398C6.97073 10.7059 6.84591 10.7389 6.71375 10.7389H4.57719C3.69613 10.7389 2.93989 10.4269 2.30846 9.80278C1.67704 9.1787 1.36133 8.4298 1.36133 7.55609C1.36133 6.68237 1.67704 5.93347 2.30846 5.30939C2.93989 4.68531 3.70347 4.37327 4.59921 4.37327L6.71375 4.35124C6.91933 4.35124 7.09554 4.42466 7.24239 4.57151C7.38923 4.71835 7.46265 4.89456 7.46265 5.10014C7.46265 5.2323 7.42961 5.35344 7.36353 5.46358C7.29745 5.57371 7.20567 5.66181 7.0882 5.72789C6.97073 5.79397 6.84591 5.82701 6.71375 5.82701H4.59921C4.11463 5.82701 3.70347 5.99588 3.36573 6.33362C3.02799 6.67136 2.85545 7.07885 2.84811 7.55609C2.84077 8.03333 3.00964 8.43714 3.35472 8.76754C3.6998 9.09794 4.11463 9.26314 4.59921 9.26314H6.71375ZM5.37014 7.52305C5.37014 7.42026 5.39217 7.32114 5.43622 7.22569C5.48027 7.13024 5.53534 7.05315 5.60142 6.99441C5.6675 6.93568 5.74459 6.88428 5.83269 6.84023C5.9208 6.79618 6.01625 6.77415 6.11904 6.77415H9.95164C10.1572 6.77415 10.3298 6.84757 10.4693 6.99441C10.6088 7.14126 10.6785 7.3138 10.6785 7.51203C10.6785 7.71027 10.6051 7.88281 10.4582 8.02966C10.3114 8.1765 10.1352 8.24992 9.92961 8.24992H6.11904C5.91346 8.24992 5.73725 8.1765 5.5904 8.02966C5.44356 7.88281 5.37014 7.71394 5.37014 7.52305Z" fill="#8A98AC"/>
    </g>
    <defs>
        <clipPath id="clip0_3518_1492">
            <rect width="14" height="15" fill="white" transform="matrix(1 0 0 -1 0 14.99)"/>
        </clipPath>
    </defs>
</svg>
