<svg xmlns="http://www.w3.org/2000/svg" width="14" height="15" viewBox="0 0 14 15" fill="none">
    <path d="M2.63886 10.4966C2.65355 10.4672 2.71962 10.4158 2.8371 10.3424C2.95457 10.269 3.03534 10.2139 3.07939 10.1772C3.12344 10.1405 3.18585 10.0855 3.26661 10.012C3.34738 9.93861 3.40244 9.86152 3.43181 9.78075C3.46118 9.69999 3.47587 9.61556 3.47587 9.52745C3.47587 9.33655 3.4208 9.18604 3.31067 9.07591C3.20054 8.96578 3.05002 8.91071 2.85913 8.91071C2.63886 8.91071 2.48101 9.00249 2.38556 9.18604C2.29011 9.36959 2.24239 9.57885 2.24239 9.81379H1.44943C1.43475 9.3439 1.55589 8.96211 1.81287 8.66842C2.06984 8.37473 2.43328 8.22789 2.90318 8.22789C3.28497 8.22789 3.6117 8.33802 3.88335 8.55829C4.15501 8.77855 4.29084 9.07958 4.29084 9.46137C4.29084 9.81379 4.18071 10.1001 3.96045 10.3204C3.74018 10.5407 3.46118 10.7536 3.12344 10.9592C2.7857 11.1647 2.55076 11.3703 2.4186 11.5759H4.31287V12.2587H1.36133C1.36133 11.965 1.42741 11.7044 1.55957 11.4768C1.69172 11.2492 1.82755 11.0803 1.96705 10.9702C2.10656 10.86 2.33049 10.7022 2.63886 10.4966ZM2.68291 4.02084H1.6697V3.42613C2.37454 3.44081 2.76368 3.1765 2.8371 2.63318H3.49789V6.59794H2.68291V4.02084ZM13.2776 2.8975V4.76974H4.90758V2.8975H13.2776ZM4.90758 6.61996H13.2997V8.47018H4.90758V6.61996ZM4.90758 12.1926V10.3424H13.2776V12.1926H4.90758Z" fill="#8A98AC"/>
</svg>
