<svg xmlns="http://www.w3.org/2000/svg" width="14" height="15" viewBox="0 0 14 15" fill="none">
    <path d="M11.8679 3.36005C11.6624 3.36005 11.4494 3.41512 11.2292 3.52525C11.0089 3.63538 10.8584 3.78957 10.7776 3.98781C10.6969 4.18604 10.6565 4.46872 10.6565 4.83582V7.96358C10.6565 8.62437 10.6124 9.16769 10.5243 9.59353C10.4362 10.0194 10.2343 10.4305 9.9186 10.827C9.60288 11.2235 9.15868 11.5392 8.586 11.7741C8.01331 12.0091 7.37454 12.1266 6.6697 12.1266C5.95017 12.1266 5.30039 12.0091 4.72036 11.7741C4.14033 11.5392 3.69613 11.2418 3.38776 10.8821C3.07939 10.5223 2.87014 10.1295 2.76001 9.70367C2.64987 9.27782 2.59481 8.77121 2.59481 8.18384V4.50543C2.59481 4.0649 2.52139 3.76387 2.37454 3.60234C2.2277 3.44082 1.88996 3.36005 1.36133 3.36005V2.58913H6.36133V3.36005H6.20714C5.73725 3.36005 5.43255 3.44449 5.29305 3.61336C5.15355 3.78223 5.08379 4.07958 5.08379 4.50543V8.18384C5.08379 8.85932 5.13886 9.39162 5.24899 9.78076C5.35913 10.1699 5.60142 10.4966 5.97587 10.7609C6.35031 11.0253 6.80186 11.1574 7.33049 11.1574C7.90318 11.1574 8.39143 11.0142 8.79525 10.7279C9.19907 10.4416 9.46338 10.0891 9.5882 9.67063C9.71302 9.25212 9.77542 8.67577 9.77542 7.94155V4.79177C9.77542 3.83729 9.30553 3.36005 8.36573 3.36005V2.58913H11.8679V3.36005ZM11.4935 13.4261H2.00009V12.6552H11.4935V13.4261Z" fill="#8A98AC"/>
</svg>
