<svg xmlns="http://www.w3.org/2000/svg" width="11" height="20" viewBox="0 0 11 20" fill="none">
    <path d="M5.5 20C3.98333 20 2.6875 19.4792 1.6125 18.4375C0.5375 17.3958 0 16.1167 0 14.6V3.85C0 2.78333 0.379167 1.875 1.1375 1.125C1.89583 0.375 2.80833 0 3.875 0C4.95833 0 5.875 0.375 6.625 1.125C7.375 1.875 7.75 2.79167 7.75 3.875V13.725C7.75 14.3583 7.53333 14.8958 7.1 15.3375C6.66667 15.7792 6.13333 16 5.5 16C4.86667 16 4.33333 15.7625 3.9 15.2875C3.46667 14.8125 3.25 14.25 3.25 13.6V3.8H4.25V13.675C4.25 14.0417 4.37083 14.3542 4.6125 14.6125C4.85417 14.8708 5.15 15 5.5 15C5.85 15 6.14583 14.875 6.3875 14.625C6.62917 14.375 6.75 14.075 6.75 13.725V3.85C6.75 3.05 6.47083 2.375 5.9125 1.825C5.35417 1.275 4.675 1 3.875 1C3.075 1 2.39583 1.275 1.8375 1.825C1.27917 2.375 1 3.05 1 3.85V14.65C1 15.8667 1.44167 16.8958 2.325 17.7375C3.20833 18.5792 4.26667 19 5.5 19C6.75 19 7.8125 18.575 8.6875 17.725C9.5625 16.875 10 15.8333 10 14.6V3.8H11V14.575C11 16.0917 10.4625 17.375 9.3875 18.425C8.3125 19.475 7.01667 20 5.5 20Z" fill="#232325"/>
</svg>
