<svg width="10" height="11" viewBox="0 0 10 11" fill="none" xmlns="http://www.w3.org/2000/svg">
<path d="M9.45824 2.87994C9.45824 3.45263 9.24532 3.93721 8.81948 4.33369C8.39363 4.73016 7.75487 5.03853 6.90318 5.2588C7.91639 5.43501 8.67264 5.75439 9.1719 6.21695C9.67117 6.6795 9.9208 7.27789 9.9208 8.0121C9.9208 8.83442 9.59774 9.48053 8.95164 9.95043C8.30553 10.4203 7.23357 10.6553 5.73578 10.6553H0.361328V9.8403C0.904647 9.8403 1.26441 9.75586 1.44062 9.58699C1.61683 9.41812 1.70494 9.08405 1.70494 8.58479V2.63765C1.70494 2.15307 1.62051 1.82267 1.45164 1.64646C1.28277 1.47025 0.919331 1.38215 0.361328 1.38215V0.545141L4.30406 0.43501H4.87675C6.65354 0.43501 7.86133 0.655273 8.50009 1.0958C9.13886 1.53633 9.45824 2.13104 9.45824 2.87994ZM4.39217 1.33809V4.81827H4.9208C5.46412 4.81827 5.87528 4.68978 6.15428 4.43281C6.43328 4.17583 6.57278 3.73163 6.57278 3.10021C6.57278 2.63031 6.48468 2.25586 6.30846 1.97686C6.13225 1.69786 5.90465 1.52165 5.62565 1.44823C5.34664 1.3748 4.93548 1.33809 4.39217 1.33809ZM4.87675 5.74338H4.39217V8.62884C4.39217 8.90784 4.42153 9.12077 4.48027 9.26761C4.53901 9.41445 4.65281 9.5356 4.82168 9.63104C4.99055 9.72649 5.22917 9.77422 5.53754 9.77422C6.00744 9.77422 6.36353 9.60535 6.60582 9.26761C6.84811 8.92987 6.96926 8.4306 6.96926 7.76981C6.96926 7.22649 6.89216 6.80432 6.73798 6.50329C6.58379 6.20226 6.37087 6.00035 6.09921 5.89756C5.82755 5.79477 5.42006 5.74338 4.87675 5.74338Z" fill="#8A98AC"/>
</svg>
