<svg width="64" height="40" viewBox="0 0 64 40" fill="none" xmlns="http://www.w3.org/2000/svg">
<g clip-path="url(#clip0_3220_5196)">
<path d="M39.9102 18.6641C39.7917 18.5547 39.6549 18.5 39.5 18.5C39.3451 18.5 39.2106 18.557 39.0967 18.6709C38.9827 18.7848 38.9258 18.9193 38.9258 19.0742C38.9258 19.2292 38.9805 19.3659 39.0898 19.4844L42.5898 22.9844C42.7083 23.1029 42.8451 23.1621 43 23.1621C43.1549 23.1621 43.2917 23.1029 43.4102 22.9844L46.9102 19.4844C47.0195 19.3659 47.0742 19.2292 47.0742 19.0742C47.0742 18.9193 47.0173 18.7848 46.9033 18.6709C46.7894 18.557 46.6549 18.5 46.5 18.5C46.3451 18.5 46.2083 18.5547 46.0898 18.6641L43 21.7539L39.9102 18.6641Z" fill="#8A98AC"/>
</g>
<path d="M20.5508 20.1101H17.2248L17.0265 20.6388C16.865 21.0059 16.7842 21.2702 16.7842 21.4317C16.7842 21.6814 16.8723 21.8576 17.0486 21.9604C17.2248 22.0632 17.5111 22.1145 17.9076 22.1145V22.9956H14.3613V22.1145C15.0368 22.1145 15.6022 21.5419 16.0574 20.3965L19.3834 12.1145H20.3085L23.7005 20.3965C24.0383 21.2188 24.343 21.7107 24.6146 21.8723C24.8863 22.0338 25.1469 22.1145 25.3966 22.1145V22.9956H20.0221V22.1145C20.5067 22.1145 20.8077 22.0705 20.9252 21.9824C21.0427 21.8943 21.1014 21.7768 21.1014 21.63C21.1014 21.4978 21.0574 21.3363 20.9693 21.1454L20.8591 20.8811L20.5508 20.1101ZM18.8327 16.0132L17.5772 19.2071H20.1763L18.8327 16.0132Z" fill="#8A98AC"/>
<rect x="9" y="26" width="22" height="4" fill="#365BA7"/>
<defs>
<clipPath id="clip0_3220_5196">
<rect width="5" height="14" fill="white" transform="matrix(0 1 1 0 36 18.5)"/>
</clipPath>
</defs>
</svg>
