<svg width="66" height="40" viewBox="0 0 66 40" fill="none" xmlns="http://www.w3.org/2000/svg">
<g clip-path="url(#clip0_3220_5204)">
<path d="M41.9102 18.6641C41.7917 18.5547 41.6549 18.5 41.5 18.5C41.3451 18.5 41.2106 18.557 41.0967 18.6709C40.9827 18.7848 40.9258 18.9193 40.9258 19.0742C40.9258 19.2292 40.9805 19.3659 41.0898 19.4844L44.5898 22.9844C44.7083 23.1029 44.8451 23.1621 45 23.1621C45.1549 23.1621 45.2917 23.1029 45.4102 22.9844L48.9102 19.4844C49.0195 19.3659 49.0742 19.2292 49.0742 19.0742C49.0742 18.9193 49.0173 18.7848 48.9033 18.6709C48.7894 18.557 48.6549 18.5 48.5 18.5C48.3451 18.5 48.2083 18.5547 48.0898 18.6641L45 21.7539L41.9102 18.6641Z" fill="#8A98AC"/>
</g>
<path d="M21.5508 22.1101H18.2248L18.0265 22.6388C17.865 23.0059 17.7842 23.2702 17.7842 23.4317C17.7842 23.6814 17.8723 23.8576 18.0486 23.9604C18.2248 24.0632 18.5111 24.1145 18.9076 24.1145V24.9956H15.3613V24.1145C16.0368 24.1145 16.6022 23.5419 17.0574 22.3965L20.3834 14.1145H21.3085L24.7005 22.3965C25.0383 23.2188 25.343 23.7107 25.6146 23.8723C25.8863 24.0338 26.1469 24.1145 26.3966 24.1145V24.9956H21.0221V24.1145C21.5067 24.1145 21.8077 24.0705 21.9252 23.9824C22.0427 23.8943 22.1014 23.7768 22.1014 23.63C22.1014 23.4978 22.0574 23.3363 21.9693 23.1454L21.8591 22.8811L21.5508 22.1101ZM19.8327 18.0132L18.5772 21.2071H21.1763L19.8327 18.0132Z" fill="#8A98AC"/>
<path d="M31.9375 14.8539L29.8129 12L27.6875 14.8539H29.398V24.1462H27.6875L29.8129 27L31.9375 24.1462H30.2503V14.8539H31.9375Z" fill="#8A98AC"/>
<defs>
<clipPath id="clip0_3220_5204">
<rect width="5" height="14" fill="white" transform="matrix(0 1 1 0 38 18.5)"/>
</clipPath>
</defs>
</svg>
