<svg width="12" height="8" viewBox="0 0 12 8" fill="none" xmlns="http://www.w3.org/2000/svg">
<path fill-rule="evenodd" clip-rule="evenodd" d="M0.400391 1.59999C0.400391 1.38781 0.484676 1.18433 0.634705 1.0343C0.784734 0.884273 0.988217 0.799988 1.20039 0.799988H10.8004C11.0126 0.799988 11.216 0.884273 11.3661 1.0343C11.5161 1.18433 11.6004 1.38781 11.6004 1.59999C11.6004 1.81216 11.5161 2.01564 11.3661 2.16567C11.216 2.3157 11.0126 2.39999 10.8004 2.39999H1.20039C0.988217 2.39999 0.784734 2.3157 0.634705 2.16567C0.484676 2.01564 0.400391 1.81216 0.400391 1.59999ZM0.400391 6.39999C0.400391 6.18781 0.484676 5.98433 0.634705 5.8343C0.784734 5.68427 0.988217 5.59999 1.20039 5.59999H10.8004C11.0126 5.59999 11.216 5.68427 11.3661 5.8343C11.5161 5.98433 11.6004 6.18781 11.6004 6.39999C11.6004 6.61216 11.5161 6.81564 11.3661 6.96567C11.216 7.1157 11.0126 7.19999 10.8004 7.19999H1.20039C0.988217 7.19999 0.784734 7.1157 0.634705 6.96567C0.484676 6.81564 0.400391 6.61216 0.400391 6.39999Z" fill="#8A98AC"/>
</svg>
