<svg width="12" height="10" viewBox="0 0 12 10" fill="none" xmlns="http://www.w3.org/2000/svg">
<path fill-rule="evenodd" clip-rule="evenodd" d="M0.400391 1.00001C0.400391 0.787839 0.484676 0.584356 0.634705 0.434327C0.784734 0.284298 0.988217 0.200012 1.20039 0.200012H10.8004C11.0126 0.200012 11.216 0.284298 11.3661 0.434327C11.5161 0.584356 11.6004 0.787839 11.6004 1.00001C11.6004 1.21219 11.5161 1.41567 11.3661 1.5657C11.216 1.71573 11.0126 1.80001 10.8004 1.80001H1.20039C0.988217 1.80001 0.784734 1.71573 0.634705 1.5657C0.484676 1.41567 0.400391 1.21219 0.400391 1.00001ZM0.400391 5.00001C0.400391 4.78784 0.484676 4.58436 0.634705 4.43433C0.784734 4.2843 0.988217 4.20001 1.20039 4.20001H10.8004C11.0126 4.20001 11.216 4.2843 11.3661 4.43433C11.5161 4.58436 11.6004 4.78784 11.6004 5.00001C11.6004 5.21219 11.5161 5.41567 11.3661 5.5657C11.216 5.71573 11.0126 5.80001 10.8004 5.80001H1.20039C0.988217 5.80001 0.784734 5.71573 0.634705 5.5657C0.484676 5.41567 0.400391 5.21219 0.400391 5.00001ZM5.20039 9.00001C5.20039 8.78784 5.28468 8.58436 5.43471 8.43433C5.58473 8.2843 5.78822 8.20001 6.00039 8.20001H10.8004C11.0126 8.20001 11.216 8.2843 11.3661 8.43433C11.5161 8.58436 11.6004 8.78784 11.6004 9.00001C11.6004 9.21219 11.5161 9.41567 11.3661 9.5657C11.216 9.71573 11.0126 9.80001 10.8004 9.80001H6.00039C5.78822 9.80001 5.58473 9.71573 5.43471 9.5657C5.28468 9.41567 5.20039 9.21219 5.20039 9.00001Z" fill="#8A98AC"/>
</svg>
