<svg width="11" height="12" viewBox="0 0 11 12" fill="none" xmlns="http://www.w3.org/2000/svg">
<path d="M10.8679 1.35995C10.6624 1.35995 10.4494 1.41501 10.2292 1.52514C10.0089 1.63528 9.85839 1.78946 9.77763 1.9877C9.69686 2.18594 9.65648 2.46861 9.65648 2.83572V5.96347C9.65648 6.62426 9.61243 7.16758 9.52432 7.59343C9.43622 8.01927 9.23431 8.43043 8.9186 8.82691C8.60288 9.22338 8.15868 9.53909 7.586 9.77404C7.01331 10.009 6.37454 10.1265 5.6697 10.1265C4.95017 10.1265 4.30039 10.009 3.72036 9.77404C3.14033 9.53909 2.69613 9.24174 2.38776 8.88197C2.07939 8.52221 1.87014 8.1294 1.76001 7.70356C1.64987 7.27771 1.59481 6.77111 1.59481 6.18373V2.50532C1.59481 2.06479 1.52139 1.76376 1.37454 1.60224C1.2277 1.44071 0.889962 1.35995 0.361328 1.35995V0.589022H5.36133V1.35995H5.20714C4.73725 1.35995 4.43255 1.44438 4.29305 1.61325C4.15355 1.78212 4.08379 2.07948 4.08379 2.50532V6.18373C4.08379 6.85921 4.13886 7.39152 4.24899 7.78065C4.35913 8.16978 4.60142 8.49651 4.97587 8.76083C5.35031 9.02514 5.80186 9.1573 6.33049 9.1573C6.90318 9.1573 7.39143 9.01413 7.79525 8.72779C8.19907 8.44144 8.46338 8.08902 8.5882 7.67052C8.71302 7.25202 8.77542 6.67566 8.77542 5.94144V2.79166C8.77542 1.83719 8.30553 1.35995 7.36573 1.35995V0.589022H10.8679V1.35995ZM10.4935 11.426H1.00009V10.6551H10.4935V11.426Z" fill="#8A98AC"/>
</svg>
