<svg width="20" height="20" viewBox="0 0 20 20" fill="none" xmlns="http://www.w3.org/2000/svg">
<path d="M5.49931 13.0001C4.60383 12.9989 3.74287 12.6545 3.09358 12.0378C2.44429 11.4212 2.05606 10.5791 2.00879 9.68484C1.96152 8.79061 2.25879 7.91228 2.83944 7.23057C3.42009 6.54887 4.23995 6.11565 5.13031 6.02007C4.86814 4.99195 5.02513 3.90181 5.56673 2.98944C6.10834 2.07708 6.9902 1.41723 8.01831 1.15507C9.04642 0.892899 10.1366 1.04989 11.0489 1.59149C11.9613 2.1331 12.6211 3.01495 12.8833 4.04307C13.4948 3.95793 14.1172 3.99951 14.7119 4.16523C15.3066 4.33095 15.8608 4.61726 16.3401 5.00635C16.8194 5.39544 17.2135 5.87898 17.4979 6.42691C17.7823 6.97484 17.9509 7.57543 17.9933 8.19132C18.0356 8.80721 17.9508 9.42523 17.7441 10.0069C17.5374 10.5886 17.2132 11.1216 16.7917 11.5726C16.3701 12.0237 15.8603 12.3832 15.2939 12.6287C14.7275 12.8743 14.1167 13.0007 13.4993 13.0001H10.9993V9.41307L12.2923 10.7061C12.4809 10.8882 12.7335 10.989 12.9957 10.9867C13.2579 10.9845 13.5087 10.8793 13.6941 10.6939C13.8795 10.5085 13.9847 10.2577 13.987 9.99547C13.9893 9.73327 13.8885 9.48067 13.7063 9.29207L10.7063 6.29207C10.5188 6.10459 10.2645 5.99928 9.99931 5.99928C9.73414 5.99928 9.47984 6.10459 9.29231 6.29207L6.29231 9.29207C6.11015 9.48067 6.00936 9.73327 6.01163 9.99547C6.01391 10.2577 6.11908 10.5085 6.30449 10.6939C6.4899 10.8793 6.74071 10.9845 7.00291 10.9867C7.2651 10.989 7.51771 10.8882 7.70631 10.7061L8.99931 9.41407V13.0001H5.49931Z" fill="#919192"/>
<path d="M9 13H11V18C11 18.2652 10.8946 18.5196 10.7071 18.7071C10.5196 18.8946 10.2652 19 10 19C9.73478 19 9.48043 18.8946 9.29289 18.7071C9.10536 18.5196 9 18.2652 9 18V13Z" fill="#919192"/>
</svg>
