<svg width="20" height="20" viewBox="0 0 20 20" fill="none" xmlns="http://www.w3.org/2000/svg">
<path d="M2 5C2 4.46957 2.21071 3.96086 2.58579 3.58579C2.96086 3.21071 3.46957 3 4 3H11C11.5304 3 12.0391 3.21071 12.4142 3.58579C12.7893 3.96086 13 4.46957 13 5V9C13 9.53043 12.7893 10.0391 12.4142 10.4142C12.0391 10.7893 11.5304 11 11 11H9L6 14V11H4C3.46957 11 2.96086 10.7893 2.58579 10.4142C2.21071 10.0391 2 9.53043 2 9V5Z" fill="#0054FF"/>
<path d="M14.9995 7V9C14.9995 10.0609 14.5781 11.0783 13.828 11.8284C13.0778 12.5786 12.0604 13 10.9995 13H9.82752L8.06152 14.767C8.34152 14.916 8.66052 15 8.99952 15H10.9995L13.9995 18V15H15.9995C16.53 15 17.0387 14.7893 17.4137 14.4142C17.7888 14.0391 17.9995 13.5304 17.9995 13V9C17.9995 8.46957 17.7888 7.96086 17.4137 7.58579C17.0387 7.21071 16.53 7 15.9995 7H14.9995Z" fill="#0054FF"/>
</svg>
