<svg width="24" height="25" viewBox="0 0 24 25" fill="none" xmlns="http://www.w3.org/2000/svg">
<path d="M1.5 8.75C1.5 7.75544 1.89509 6.80161 2.59835 6.09835C3.30161 5.39509 4.25544 5 5.25 5H18.75C19.7446 5 20.6984 5.39509 21.4016 6.09835C22.1049 6.80161 22.5 7.75544 22.5 8.75V14.75C22.5 15.2425 22.403 15.7301 22.2145 16.1851C22.0261 16.64 21.7499 17.0534 21.4016 17.4017C21.0534 17.7499 20.64 18.0261 20.1851 18.2145C19.7301 18.403 19.2425 18.5 18.75 18.5H5.25C4.25544 18.5 3.30161 18.1049 2.59835 17.4017C1.89509 16.6984 1.5 15.7446 1.5 14.75V8.75ZM5.25 6.5C4.65326 6.5 4.08097 6.73705 3.65901 7.15901C3.23705 7.58097 3 8.15326 3 8.75V14.75C3 15.3467 3.23705 15.919 3.65901 16.341C4.08097 16.7629 4.65326 17 5.25 17H18.75C19.3467 17 19.919 16.7629 20.341 16.341C20.7629 15.919 21 15.3467 21 14.75V8.75C21 8.15326 20.7629 7.58097 20.341 7.15901C19.919 6.73705 19.3467 6.5 18.75 6.5H5.25ZM10.5 11.75C10.5 11.5511 10.579 11.3603 10.7197 11.2197C10.8603 11.079 11.0511 11 11.25 11H18C18.1989 11 18.3897 11.079 18.5303 11.2197C18.671 11.3603 18.75 11.5511 18.75 11.75C18.75 11.9489 18.671 12.1397 18.5303 12.2803C18.3897 12.421 18.1989 12.5 18 12.5H11.25C11.0511 12.5 10.8603 12.421 10.7197 12.2803C10.579 12.1397 10.5 11.9489 10.5 11.75ZM9 11.75C9 12.3467 8.76295 12.919 8.34099 13.341C7.91903 13.7629 7.34674 14 6.75 14C6.15326 14 5.58097 13.7629 5.15901 13.341C4.73705 12.919 4.5 12.3467 4.5 11.75C4.5 11.1533 4.73705 10.581 5.15901 10.159C5.58097 9.73705 6.15326 9.5 6.75 9.5C7.34674 9.5 7.91903 9.73705 8.34099 10.159C8.76295 10.581 9 11.1533 9 11.75Z" fill="#919192"/>
</svg>
