<svg width="24" height="25" viewBox="0 0 24 25" fill="none" xmlns="http://www.w3.org/2000/svg">
<path d="M13 7.5H5.2C4.0799 7.5 3.51984 7.5 3.09202 7.71799C2.71569 7.90973 2.40973 8.21569 2.21799 8.59202C2 9.01984 2 9.5799 2 10.7V14.3C2 15.4201 2 15.9802 2.21799 16.408C2.40973 16.7843 2.71569 17.0903 3.09202 17.282C3.51984 17.5 4.07989 17.5 5.2 17.5H13M17 7.5H18.8C19.9201 7.5 20.4802 7.5 20.908 7.71799C21.2843 7.90973 21.5903 8.21569 21.782 8.59202C22 9.01984 22 9.5799 22 10.7V14.3C22 15.4201 22 15.9802 21.782 16.408C21.5903 16.7843 21.2843 17.0903 20.908 17.282C20.4802 17.5 19.9201 17.5 18.8 17.5H17M17 21.5L17 3.5M19.5 3.50001L14.5 3.5M19.5 21.5L14.5 21.5" stroke="#919192" stroke-width="2" stroke-linecap="round" stroke-linejoin="round"/>
</svg>
