<svg width="24" height="25" viewBox="0 0 24 25" fill="none" xmlns="http://www.w3.org/2000/svg">
<path d="M12.913 17.5H20.087M12.913 17.5L11 21.5M12.913 17.5L15.7783 11.509C16.0092 11.0263 16.1246 10.7849 16.2826 10.7086C16.4199 10.6423 16.5801 10.6423 16.7174 10.7086C16.8754 10.7849 16.9908 11.0263 17.2217 11.509L20.087 17.5M20.087 17.5L22 21.5M2 5.5H8M8 5.5H11.5M8 5.5V3.5M11.5 5.5H14M11.5 5.5C11.0039 8.45729 9.85259 11.1362 8.16555 13.3844M10 14.5C9.38747 14.2248 8.76265 13.8421 8.16555 13.3844M8.16555 13.3844C6.81302 12.3478 5.60276 10.9266 5 9.5M8.16555 13.3844C6.56086 15.5229 4.47143 17.2718 2 18.5" stroke="#919192" stroke-width="2" stroke-linecap="round" stroke-linejoin="round"/>
</svg>
