<svg width="20" height="20" viewBox="0 0 20 20" fill="none" xmlns="http://www.w3.org/2000/svg">
<path fill-rule="evenodd" clip-rule="evenodd" d="M7.70679 3.29303C7.89426 3.48056 7.99957 3.73487 7.99957 4.00003C7.99957 4.26519 7.89426 4.5195 7.70679 4.70703L5.41379 7.00003H10.9998C12.8563 7.00003 14.6368 7.73753 15.9495 9.05028C17.2623 10.363 17.9998 12.1435 17.9998 14V16C17.9998 16.2652 17.8944 16.5196 17.7069 16.7071C17.5194 16.8947 17.265 17 16.9998 17C16.7346 17 16.4802 16.8947 16.2927 16.7071C16.1051 16.5196 15.9998 16.2652 15.9998 16V14C15.9998 12.6739 15.473 11.4022 14.5353 10.4645C13.5976 9.52681 12.3259 9.00003 10.9998 9.00003H5.41379L7.70679 11.293C7.8023 11.3853 7.87848 11.4956 7.93089 11.6176C7.9833 11.7396 8.01088 11.8709 8.01204 12.0036C8.01319 12.1364 7.98789 12.2681 7.93761 12.391C7.88733 12.5139 7.81307 12.6255 7.71918 12.7194C7.62529 12.8133 7.51364 12.8876 7.39074 12.9379C7.26784 12.9881 7.13616 13.0134 7.00339 13.0123C6.87061 13.0111 6.73939 12.9835 6.61738 12.9311C6.49538 12.8787 6.38503 12.8025 6.29279 12.707L2.29279 8.70703C2.10532 8.5195 2 8.26519 2 8.00003C2 7.73487 2.10532 7.48056 2.29279 7.29303L6.29279 3.29303C6.48031 3.10556 6.73462 3.00024 6.99979 3.00024C7.26495 3.00024 7.51926 3.10556 7.70679 3.29303Z" fill="#232325"/>
</svg>
