<svg width="17" height="17" viewBox="0 0 17 17" fill="none" xmlns="http://www.w3.org/2000/svg">
<path d="M7.16927 3.16664H3.0026C2.56058 3.16664 2.13665 3.34223 1.82409 3.65479C1.51153 3.96736 1.33594 4.39128 1.33594 4.83331V14C1.33594 14.442 1.51153 14.8659 1.82409 15.1785C2.13665 15.491 2.56058 15.6666 3.0026 15.6666H12.1693C12.6113 15.6666 13.0352 15.491 13.3478 15.1785C13.6603 14.8659 13.8359 14.442 13.8359 14V9.83331M12.6576 1.98831C12.8113 1.82912 12.9953 1.70215 13.1986 1.6148C13.4019 1.52746 13.6206 1.48148 13.8419 1.47956C14.0632 1.47763 14.2827 1.5198 14.4875 1.6036C14.6924 1.6874 14.8784 1.81116 15.0349 1.96765C15.1914 2.12414 15.3152 2.31022 15.399 2.51505C15.4828 2.71988 15.5249 2.93934 15.523 3.16064C15.5211 3.38194 15.4751 3.60064 15.3878 3.80398C15.3004 4.00732 15.1735 4.19123 15.0143 4.34497L7.85927 11.5H5.5026V9.14331L12.6576 1.98831Z" stroke="#0054FF" stroke-width="1.4" stroke-linecap="round" stroke-linejoin="round"/>
</svg>
