<svg width="24" height="24" viewBox="0 0 24 24" fill="none" xmlns="http://www.w3.org/2000/svg">
<path d="M7.75 1C6.51625 1 5.5 2.01625 5.5 3.25V20.75C5.5 21.9838 6.51625 23 7.75 23H16.25C17.4838 23 18.5 21.9838 18.5 20.75V3.25C18.5 2.01625 17.4838 1 16.25 1H7.75ZM7.75 2.5H10.5996L10.8359 3.17383C11.0089 3.66883 11.476 4 12 4C12.524 4 12.9911 3.66883 13.1641 3.17383L13.4004 2.5H16.25C16.6732 2.5 17 2.82675 17 3.25V20.75C17 21.1733 16.6732 21.5 16.25 21.5H7.75C7.32675 21.5 7 21.1733 7 20.75V3.25C7 2.82675 7.32675 2.5 7.75 2.5Z" fill="black"/>
</svg>
