<svg width="18" height="18" viewBox="0 0 18 18" fill="none" xmlns="http://www.w3.org/2000/svg">
<path d="M9.79209 2.43915C9.54292 1.67165 8.45709 1.67165 8.20709 2.43915L6.94126 6.33415C6.88674 6.50136 6.78071 6.64703 6.63836 6.75032C6.49601 6.8536 6.32463 6.9092 6.14876 6.90915H2.05376C1.24709 6.90915 0.910425 7.94248 1.56376 8.41748L4.87709 10.8242C5.01942 10.9276 5.12534 11.0735 5.17968 11.2408C5.23402 11.4082 5.23399 11.5885 5.17959 11.7558L3.91459 15.6508C3.66459 16.4183 4.54376 17.0575 5.19626 16.5825L8.50959 14.1758C8.652 14.0723 8.82353 14.0165 8.99959 14.0165C9.17565 14.0165 9.34718 14.0723 9.48959 14.1758L12.8029 16.5825C13.4554 17.0575 14.3346 16.4192 14.0846 15.6508L12.8196 11.7558C12.7652 11.5885 12.7652 11.4082 12.8195 11.2408C12.8738 11.0735 12.9798 10.9276 13.1221 10.8242L16.4354 8.41748C17.0879 7.94248 16.7529 6.90915 15.9454 6.90915H11.8496C11.6739 6.90902 11.5027 6.85334 11.3605 6.75007C11.2183 6.6468 11.1124 6.50122 11.0579 6.33415L9.79209 2.43915Z" stroke="#919192" stroke-width="2" stroke-linecap="round" stroke-linejoin="round"/>
</svg>
