<svg width="10" height="6" viewBox="0 0 10 6" fill="none" xmlns="http://www.w3.org/2000/svg">
<path fill-rule="evenodd" clip-rule="evenodd" d="M0.29357 0.292787C0.481097 0.105316 0.735405 0 1.00057 0C1.26573 0 1.52004 0.105316 1.70757 0.292787L5.00057 3.58579L8.29357 0.292787C8.48217 0.110629 8.73477 0.00983372 8.99697 0.0121121C9.25917 0.0143906 9.50998 0.11956 9.69539 0.304968C9.8808 0.490376 9.98597 0.741189 9.98824 1.00339C9.99052 1.26558 9.88973 1.51818 9.70757 1.70679L5.70757 5.70679C5.52004 5.89426 5.26573 5.99957 5.00057 5.99957C4.7354 5.99957 4.4811 5.89426 4.29357 5.70679L0.29357 1.70679C0.106098 1.51926 0.000782967 1.26495 0.000782967 0.999786C0.000782967 0.734622 0.106098 0.480314 0.29357 0.292787Z" fill="#919192"/>
</svg>
