<svg width="14" height="16" viewBox="0 0 14 16" fill="none" xmlns="http://www.w3.org/2000/svg">
<path d="M1.75 2.74213C1.75 2.01376 1.75 1.64958 1.90187 1.44882C2.03417 1.27393 2.23639 1.1657 2.4553 1.15263C2.70658 1.13763 3.0096 1.33964 3.61564 1.74367L11.5023 7.00145C12.0031 7.3353 12.2535 7.50222 12.3407 7.71261C12.417 7.89655 12.417 8.10328 12.3407 8.28722C12.2535 8.49761 12.0031 8.66453 11.5023 8.99837L3.61564 14.2562C3.0096 14.6602 2.70658 14.8622 2.4553 14.8472C2.23639 14.8341 2.03417 14.7259 1.90187 14.551C1.75 14.3503 1.75 13.9861 1.75 13.2577V2.74213Z" stroke="#344054" stroke-width="1.6" stroke-linecap="round" stroke-linejoin="round"/>
</svg>
