<svg width="56" height="20" viewBox="0 0 56 20" fill="none" xmlns="http://www.w3.org/2000/svg">
<rect x="0.5" y="0.5" width="55" height="19" rx="3.5" fill="white" stroke="#8A98AC"/>
<path d="M10.6914 5H12.2441V12.5996L12.0918 14H10.6914V5ZM16.3223 10.7656V10.8887C16.3223 11.3613 16.2695 11.7949 16.1641 12.1895C16.0625 12.584 15.9082 12.9258 15.7012 13.2148C15.4941 13.5 15.2363 13.7227 14.9277 13.8828C14.623 14.0391 14.2656 14.1172 13.8555 14.1172C13.4648 14.1172 13.125 14.041 12.8359 13.8887C12.5508 13.7363 12.3105 13.5215 12.1152 13.2441C11.9199 12.9629 11.7637 12.6328 11.6465 12.2539C11.5293 11.8711 11.4414 11.4531 11.3828 11V10.666C11.4414 10.209 11.5293 9.79102 11.6465 9.41211C11.7637 9.0332 11.9199 8.70312 12.1152 8.42188C12.3105 8.14062 12.5508 7.92383 12.8359 7.77148C13.1211 7.61914 13.457 7.54297 13.8438 7.54297C14.2578 7.54297 14.6191 7.62305 14.9277 7.7832C15.2402 7.93945 15.498 8.16211 15.7012 8.45117C15.9082 8.73633 16.0625 9.07617 16.1641 9.4707C16.2695 9.86133 16.3223 10.293 16.3223 10.7656ZM14.7695 10.8887V10.7656C14.7695 10.4961 14.748 10.2422 14.7051 10.0039C14.6621 9.76172 14.5918 9.54883 14.4941 9.36523C14.3965 9.18164 14.2637 9.03711 14.0957 8.93164C13.9277 8.82617 13.7168 8.77344 13.4629 8.77344C13.2207 8.77344 13.0137 8.81445 12.8418 8.89648C12.6738 8.97852 12.5332 9.0918 12.4199 9.23633C12.3105 9.38086 12.2246 9.55078 12.1621 9.74609C12.1035 9.94141 12.0645 10.1523 12.0449 10.3789V11.293C12.0723 11.5938 12.1367 11.8652 12.2383 12.1074C12.3398 12.3457 12.4902 12.5352 12.6895 12.6758C12.8926 12.8164 13.1543 12.8867 13.4746 12.8867C13.7246 12.8867 13.9336 12.8379 14.1016 12.7402C14.2695 12.6387 14.4023 12.498 14.5 12.3184C14.5977 12.1348 14.666 11.9219 14.7051 11.6797C14.748 11.4375 14.7695 11.1738 14.7695 10.8887ZM21.3207 12.4941V7.66016H22.8793V14H21.4145L21.3207 12.4941ZM21.5199 11.1816L22.0004 11.1699C22.0004 11.5957 21.9535 11.9883 21.8598 12.3477C21.766 12.707 21.6195 13.0195 21.4203 13.2852C21.225 13.5469 20.977 13.752 20.6762 13.9004C20.3754 14.0449 20.0199 14.1172 19.6098 14.1172C19.2973 14.1172 19.0121 14.0742 18.7543 13.9883C18.4965 13.8984 18.2738 13.7598 18.0863 13.5723C17.9027 13.3809 17.7602 13.1367 17.6586 12.8398C17.557 12.5391 17.5062 12.1777 17.5062 11.7559V7.66016H19.0531V11.7676C19.0531 11.9785 19.0766 12.1543 19.1234 12.2949C19.1742 12.4355 19.2426 12.5508 19.3285 12.6406C19.4184 12.7266 19.5219 12.7891 19.6391 12.8281C19.7602 12.8633 19.8891 12.8809 20.0258 12.8809C20.4008 12.8809 20.6957 12.8066 20.9105 12.6582C21.1293 12.5059 21.2855 12.3027 21.3793 12.0488C21.473 11.791 21.5199 11.502 21.5199 11.1816ZM27.3504 7.66016V8.77344H23.7176V7.66016H27.3504ZM24.6902 6.10156H26.243V12.1719C26.243 12.3594 26.2684 12.5039 26.3191 12.6055C26.3699 12.707 26.4461 12.7754 26.5477 12.8105C26.6492 12.8457 26.7703 12.8633 26.9109 12.8633C27.0125 12.8633 27.1062 12.8574 27.1922 12.8457C27.2781 12.834 27.3504 12.8223 27.409 12.8105L27.4148 13.9707C27.2859 14.0137 27.1395 14.0488 26.9754 14.0762C26.8152 14.1035 26.6336 14.1172 26.4305 14.1172C26.0828 14.1172 25.7781 14.0586 25.5164 13.9414C25.2547 13.8203 25.0516 13.627 24.907 13.3613C24.7625 13.0918 24.6902 12.7363 24.6902 12.2949V6.10156ZM31.4816 7.66016V8.77344H27.8488V7.66016H31.4816ZM28.8215 6.10156H30.3742V12.1719C30.3742 12.3594 30.3996 12.5039 30.4504 12.6055C30.5012 12.707 30.5773 12.7754 30.6789 12.8105C30.7805 12.8457 30.9016 12.8633 31.0422 12.8633C31.1437 12.8633 31.2375 12.8574 31.3234 12.8457C31.4094 12.834 31.4816 12.8223 31.5402 12.8105L31.5461 13.9707C31.4172 14.0137 31.2707 14.0488 31.1066 14.0762C30.9465 14.1035 30.7648 14.1172 30.5617 14.1172C30.2141 14.1172 29.9094 14.0586 29.6477 13.9414C29.3859 13.8203 29.1828 13.627 29.0383 13.3613C28.8937 13.0918 28.8215 12.7363 28.8215 12.2949V6.10156ZM32.1852 10.8945V10.7715C32.1852 10.3066 32.2516 9.87891 32.3844 9.48828C32.5172 9.09375 32.7105 8.75195 32.9645 8.46289C33.2184 8.17383 33.5289 7.94922 33.8961 7.78906C34.2633 7.625 34.6812 7.54297 35.15 7.54297C35.6266 7.54297 36.0484 7.625 36.4156 7.78906C36.7867 7.94922 37.0992 8.17383 37.3531 8.46289C37.607 8.75195 37.8004 9.09375 37.9332 9.48828C38.066 9.87891 38.1324 10.3066 38.1324 10.7715V10.8945C38.1324 11.3555 38.066 11.7832 37.9332 12.1777C37.8004 12.5684 37.607 12.9102 37.3531 13.2031C37.0992 13.4922 36.7887 13.7168 36.4215 13.877C36.0543 14.0371 35.6344 14.1172 35.1617 14.1172C34.693 14.1172 34.273 14.0371 33.902 13.877C33.5309 13.7168 33.2184 13.4922 32.9645 13.2031C32.7105 12.9102 32.5172 12.5684 32.3844 12.1777C32.2516 11.7832 32.1852 11.3555 32.1852 10.8945ZM33.732 10.7715V10.8945C33.732 11.1719 33.7594 11.4316 33.8141 11.6738C33.8687 11.916 33.9527 12.1289 34.066 12.3125C34.1793 12.4961 34.3258 12.6406 34.5055 12.7461C34.6891 12.8477 34.9078 12.8984 35.1617 12.8984C35.4117 12.8984 35.6266 12.8477 35.8062 12.7461C35.9859 12.6406 36.1324 12.4961 36.2457 12.3125C36.3629 12.1289 36.4488 11.916 36.5035 11.6738C36.5582 11.4316 36.5855 11.1719 36.5855 10.8945V10.7715C36.5855 10.498 36.5582 10.2422 36.5035 10.0039C36.4488 9.76172 36.3629 9.54883 36.2457 9.36523C36.1324 9.17773 35.984 9.03125 35.8004 8.92578C35.6207 8.81641 35.4039 8.76172 35.15 8.76172C34.9 8.76172 34.6852 8.81641 34.5055 8.92578C34.3258 9.03125 34.1793 9.17773 34.066 9.36523C33.9527 9.54883 33.8687 9.76172 33.8141 10.0039C33.7594 10.2422 33.732 10.498 33.732 10.7715ZM40.875 9.01367V14H39.3281V7.66016H40.7812L40.875 9.01367ZM40.6289 10.6016H40.1719C40.1758 10.1406 40.2383 9.72266 40.3594 9.34766C40.4805 8.97266 40.6504 8.65039 40.8691 8.38086C41.0918 8.11133 41.3555 7.9043 41.6602 7.75977C41.9648 7.61523 42.3047 7.54297 42.6797 7.54297C42.9844 7.54297 43.2598 7.58594 43.5059 7.67188C43.752 7.75781 43.9629 7.89453 44.1387 8.08203C44.3184 8.26953 44.4551 8.51562 44.5488 8.82031C44.6465 9.12109 44.6953 9.49219 44.6953 9.93359V14H43.1367V9.92188C43.1367 9.63281 43.0938 9.4043 43.0078 9.23633C42.9258 9.06836 42.8047 8.94922 42.6445 8.87891C42.4883 8.80859 42.2949 8.77344 42.0645 8.77344C41.8262 8.77344 41.6172 8.82227 41.4375 8.91992C41.2617 9.01367 41.1133 9.14453 40.9922 9.3125C40.875 9.48047 40.7852 9.67383 40.7227 9.89258C40.6602 10.1113 40.6289 10.3477 40.6289 10.6016Z" fill="#8A98AC"/>
</svg>
