<svg width="10" height="6" viewBox="0 0 10 6" fill="none" xmlns="http://www.w3.org/2000/svg">
<path fill-rule="evenodd" clip-rule="evenodd" d="M0.291615 0.292739C0.479144 0.105269 0.733452 -4.51614e-05 0.998616 -4.38672e-05C1.26378 -4.2573e-05 1.51809 0.105274 1.70561 0.292746L4.9986 3.58576L8.29161 0.292778C8.48022 0.110621 8.73282 0.0098276 8.99502 0.0121073C9.25721 0.014387 9.50803 0.119557 9.69343 0.304966C9.87884 0.490375 9.98401 0.741189 9.98629 1.00339C9.98856 1.26558 9.88777 1.51818 9.70561 1.70678L5.70559 5.70677C5.51806 5.89424 5.26375 5.99955 4.99859 5.99955C4.73342 5.99955 4.47912 5.89423 4.29159 5.70676L0.291608 1.70674C0.104138 1.51921 -0.00117633 1.2649 -0.00117504 0.999738C-0.00117374 0.734573 0.104143 0.480266 0.291615 0.292739Z" fill="#919192"/>
</svg>
