<svg width="46" height="32" viewBox="0 0 46 32" fill="none" xmlns="http://www.w3.org/2000/svg">
<path d="M9.31055 6.14551L5.66309 17H3.10547L7.88672 4.20312H9.52148L9.31055 6.14551ZM12.3604 17L8.69531 6.14551L8.47559 4.20312H10.1191L14.9268 17H12.3604ZM12.1934 12.2451V14.1523H5.3291V12.2451H12.1934Z" fill="#8A98AC"/>
<path d="M37.126 11.2959H33.8564L33.8389 9.59082H36.6426C37.123 9.59082 37.5244 9.52344 37.8467 9.38867C38.1689 9.25391 38.4121 9.05762 38.5762 8.7998C38.7461 8.54199 38.8311 8.22852 38.8311 7.85938C38.8311 7.44922 38.752 7.11523 38.5938 6.85742C38.4414 6.59961 38.2012 6.41211 37.873 6.29492C37.5449 6.17188 37.1289 6.11035 36.625 6.11035H34.6387V17H32.2217V4.20312H36.625C37.3516 4.20312 37.999 4.27344 38.5674 4.41406C39.1416 4.54883 39.6279 4.75977 40.0264 5.04688C40.4248 5.33398 40.7266 5.69434 40.9316 6.12793C41.1426 6.56152 41.248 7.07715 41.248 7.6748C41.248 8.20215 41.125 8.68848 40.8789 9.13379C40.6387 9.57324 40.2666 9.93066 39.7627 10.2061C39.2646 10.4814 38.6318 10.6396 37.8643 10.6807L37.126 11.2959ZM37.0205 17H33.1445L34.1553 15.1016H37.0205C37.501 15.1016 37.8965 15.0225 38.207 14.8643C38.5234 14.7061 38.7578 14.4893 38.9102 14.2139C39.0684 13.9326 39.1475 13.6104 39.1475 13.2471C39.1475 12.8486 39.0771 12.5029 38.9365 12.21C38.8018 11.917 38.585 11.6914 38.2861 11.5332C37.9932 11.375 37.6064 11.2959 37.126 11.2959H34.6123L34.6299 9.59082H37.8291L38.3828 10.25C39.1211 10.2559 39.7217 10.4023 40.1846 10.6895C40.6533 10.9766 40.999 11.3457 41.2217 11.7969C41.4443 12.248 41.5557 12.7344 41.5557 13.2559C41.5557 14.0762 41.377 14.7646 41.0195 15.3213C40.668 15.8779 40.1523 16.2969 39.4727 16.5781C38.7988 16.8594 37.9814 17 37.0205 17Z" fill="#8A98AC"/>
<rect x="0.5" y="22.5" width="18" height="1" fill="white" stroke="#8A98AC"/>
<rect x="27.5" y="22.5" width="18" height="1" fill="white" stroke="#8A98AC"/>
<rect x="0.5" y="26.5" width="18" height="1" fill="white" stroke="#8A98AC"/>
<rect x="27.5" y="26.5" width="18" height="1" fill="white" stroke="#8A98AC"/>
<rect x="0.5" y="30.5" width="18" height="1" fill="white" stroke="#8A98AC"/>
<rect x="27.5" y="30.5" width="18" height="1" fill="white" stroke="#8A98AC"/>
</svg>
