<svg width="18" height="18" viewBox="0 0 18 18" fill="none" xmlns="http://www.w3.org/2000/svg">
<path d="M16.2188 17.25C14.4465 17.25 12.6399 16.8222 10.799 15.9667C8.95799 15.1111 7.25069 13.8965 5.67708 12.3229C4.10347 10.7493 2.88889 9.04201 2.03333 7.20104C1.17778 5.36007 0.75 3.55347 0.75 1.78125C0.75 1.4866 0.848213 1.24107 1.04464 1.04464C1.24107 0.848213 1.4866 0.75 1.78125 0.75H4.98958C5.20347 0.75 5.38681 0.826389 5.53958 0.979167C5.69236 1.13194 5.79931 1.32292 5.86042 1.55208L6.47754 4.43136C6.50918 4.65073 6.5059 4.84826 6.46771 5.02396C6.42951 5.19965 6.34756 5.35034 6.22184 5.47601L3.93542 7.78542C4.33264 8.45764 4.75278 9.08403 5.19583 9.66458C5.63889 10.2451 6.12778 10.7951 6.6625 11.3146C7.22778 11.8951 7.82361 12.426 8.45 12.9073C9.07639 13.3885 9.73333 13.8125 10.4208 14.1792L12.5979 11.9333C12.7507 11.7653 12.9275 11.6507 13.1285 11.5896C13.3294 11.5285 13.5268 11.5132 13.7208 11.5437L16.4479 12.1396C16.6771 12.2007 16.8681 12.3233 17.0208 12.5073C17.1736 12.6913 17.25 12.8972 17.25 13.125V16.2188C17.25 16.5134 17.1518 16.7589 16.9554 16.9554C16.7589 17.1518 16.5134 17.25 16.2188 17.25ZM3.24792 6.525L5.10417 4.64583L4.57708 2.125H2.125C2.15556 2.76667 2.25868 3.44271 2.43438 4.15313C2.61007 4.86354 2.88125 5.65417 3.24792 6.525ZM11.7042 14.8438C12.3306 15.134 13.0104 15.3708 13.7438 15.5542C14.4771 15.7375 15.1875 15.8444 15.875 15.875V13.4229L13.5146 12.9417L11.7042 14.8438Z" fill="#8A98AC"/>
</svg>
