<svg width="16" height="20" viewBox="0 0 16 20" fill="none" xmlns="http://www.w3.org/2000/svg">
<path d="M5.25065 10.9167H10.7507M8.00065 8.16667V13.6667M12.584 18.25H3.41732C2.93109 18.25 2.46477 18.0568 2.12096 17.713C1.77714 17.3692 1.58398 16.9029 1.58398 16.4167V3.58333C1.58398 3.0971 1.77714 2.63079 2.12096 2.28697C2.46477 1.94315 2.93109 1.75 3.41732 1.75H8.53782C8.78091 1.75005 9.01403 1.84666 9.1859 2.01858L14.1487 6.98142C14.3207 7.15328 14.4173 7.3864 14.4173 7.6295V16.4167C14.4173 16.9029 14.2242 17.3692 13.8803 17.713C13.5365 18.0568 13.0702 18.25 12.584 18.25Z" stroke="#8A98AC" stroke-width="2" stroke-linecap="round" stroke-linejoin="round"/>
</svg>
