<svg width="18" height="18" viewBox="0 0 18 18" fill="none" xmlns="http://www.w3.org/2000/svg">
<path d="M1.66602 12.6666L5.86985 8.46279C6.21365 8.1191 6.67988 7.92602 7.16602 7.92602C7.65215 7.92602 8.11838 8.1191 8.46218 8.46279L12.666 12.6666M10.8327 10.8333L12.2865 9.37946C12.6303 9.03576 13.0965 8.84268 13.5827 8.84268C14.0688 8.84268 14.535 9.03576 14.8788 9.37946L16.3327 10.8333M10.8327 5.33329H10.8418M3.49935 16.3333H14.4993C14.9856 16.3333 15.4519 16.1401 15.7957 15.7963C16.1395 15.4525 16.3327 14.9862 16.3327 14.5V3.49996C16.3327 3.01373 16.1395 2.54741 15.7957 2.2036C15.4519 1.85978 14.9856 1.66663 14.4993 1.66663H3.49935C3.01312 1.66663 2.5468 1.85978 2.20299 2.2036C1.85917 2.54741 1.66602 3.01373 1.66602 3.49996V14.5C1.66602 14.9862 1.85917 15.4525 2.20299 15.7963C2.5468 16.1401 3.01312 16.3333 3.49935 16.3333Z" stroke="#8A98AC" stroke-width="2" stroke-linecap="round" stroke-linejoin="round"/>
</svg>
