<svg width="26" height="17" viewBox="0 0 26 17" fill="none" xmlns="http://www.w3.org/2000/svg">
<path d="M7.71289 2.7334L3.25488 16H0.128906L5.97266 0.359375H7.9707L7.71289 2.7334ZM11.4404 16L6.96094 2.7334L6.69238 0.359375H8.70117L14.5771 16H11.4404ZM11.2363 10.1885V12.5195H2.84668V10.1885H11.2363ZM22.476 13.5293V8.16895C22.476 7.77507 22.4079 7.4349 22.2719 7.14844C22.1358 6.86198 21.9281 6.63997 21.6488 6.48242C21.3695 6.32487 21.015 6.24609 20.5854 6.24609C20.2058 6.24609 19.8728 6.31055 19.5863 6.43945C19.307 6.56836 19.0922 6.75098 18.9418 6.9873C18.7914 7.21647 18.7162 7.48145 18.7162 7.78223H15.8695C15.8695 7.30241 15.9841 6.84766 16.2133 6.41797C16.4424 5.98112 16.7683 5.5944 17.1908 5.25781C17.6205 4.91406 18.1326 4.64551 18.727 4.45215C19.3285 4.25879 20.0017 4.16211 20.7465 4.16211C21.6273 4.16211 22.4115 4.3125 23.099 4.61328C23.7937 4.9069 24.338 5.35091 24.7318 5.94531C25.1329 6.53971 25.3334 7.28809 25.3334 8.19043V13.2607C25.3334 13.8408 25.3692 14.3385 25.4408 14.7539C25.5196 15.1621 25.6342 15.5166 25.7846 15.8174V16H22.8949C22.7589 15.7064 22.655 15.334 22.5834 14.8828C22.5118 14.4245 22.476 13.9733 22.476 13.5293ZM22.8734 8.9209L22.8949 10.6074H21.101C20.657 10.6074 20.2667 10.654 19.9301 10.7471C19.5935 10.833 19.3178 10.9619 19.1029 11.1338C18.8881 11.2985 18.727 11.499 18.6195 11.7354C18.5121 11.9645 18.4584 12.2259 18.4584 12.5195C18.4584 12.806 18.5229 13.0638 18.6518 13.293C18.7878 13.5221 18.9812 13.7048 19.2318 13.8408C19.4896 13.9697 19.7904 14.0342 20.1342 14.0342C20.6355 14.0342 21.0723 13.9339 21.4447 13.7334C21.8171 13.5257 22.1072 13.2751 22.3148 12.9814C22.5225 12.6878 22.6335 12.4085 22.6479 12.1436L23.4643 13.3682C23.364 13.6618 23.2136 13.9733 23.0131 14.3027C22.8126 14.6322 22.5548 14.9401 22.2396 15.2266C21.9245 15.513 21.545 15.7493 21.101 15.9355C20.657 16.1217 20.1413 16.2148 19.5541 16.2148C18.8021 16.2148 18.129 16.0645 17.5346 15.7637C16.9402 15.4629 16.4711 15.0511 16.1273 14.5283C15.7836 14.0055 15.6117 13.4111 15.6117 12.7451C15.6117 12.1292 15.7263 11.585 15.9555 11.1123C16.1846 10.6396 16.5248 10.2422 16.976 9.91992C17.4271 9.59049 17.9857 9.34342 18.6518 9.17871C19.3249 9.00684 20.0948 8.9209 20.9613 8.9209H22.8734Z" fill="#8A98AC"/>
</svg>
