<svg width="61" height="29" viewBox="0 0 61 29" fill="none" xmlns="http://www.w3.org/2000/svg">
<path fill-rule="evenodd" clip-rule="evenodd" d="M58.1464 28.8534C58.0527 28.7595 58 28.6322 58 28.4995C58 28.3667 58.0527 28.2394 58.1464 28.1455L59.793 26.497L58.1464 24.8484C58.0553 24.754 58.0049 24.6275 58.0061 24.4963C58.0072 24.365 58.0598 24.2395 58.1525 24.1466C58.2452 24.0538 58.3706 24.0012 58.5017 24C58.6328 23.9989 58.7591 24.0493 58.8535 24.1405L60.8536 26.143C60.9473 26.2369 61 26.3642 61 26.497C61 26.6297 60.9473 26.757 60.8536 26.8509L58.8535 28.8534C58.7597 28.9473 58.6325 29 58.4999 29C58.3673 29 58.2402 28.9473 58.1464 28.8534Z" fill="#8A98AC"/>
<path fill-rule="evenodd" clip-rule="evenodd" d="M52.8536 24.1466C52.9473 24.2405 53 24.3678 53 24.5005C53 24.6333 52.9473 24.7606 52.8536 24.8545L51.207 26.503L52.8536 28.1516C52.9447 28.246 52.9951 28.3725 52.9939 28.5037C52.9928 28.635 52.9402 28.7605 52.8475 28.8534C52.7548 28.9462 52.6294 28.9988 52.4983 29C52.3672 29.0011 52.2409 28.9507 52.1465 28.8595L50.1464 26.857C50.0527 26.7631 50 26.6358 50 26.503C50 26.3703 50.0527 26.243 50.1464 26.1491L52.1465 24.1466C52.2403 24.0527 52.3675 24 52.5001 24C52.6327 24 52.7598 24.0527 52.8536 24.1466Z" fill="#8A98AC"/>
<rect x="0.5" y="0.5" width="18" height="18" fill="white" stroke="#8A98AC"/>
<rect x="21.5" y="0.5" width="18" height="18" fill="white" stroke="#8A98AC"/>
<rect x="42.5" y="0.5" width="18" height="18" fill="white" stroke="#8A98AC"/>
</svg>
