<svg width="20" height="14" viewBox="0 0 20 14" fill="none" xmlns="http://www.w3.org/2000/svg">
<path d="M12.75 5.16667L16.9236 3.08033C17.0633 3.01052 17.2185 2.97756 17.3746 2.98458C17.5306 2.99161 17.6823 3.03839 17.8151 3.12049C17.948 3.20258 18.0577 3.31727 18.1338 3.45367C18.2099 3.59006 18.2499 3.74364 18.25 3.89983V10.1002C18.2499 10.2564 18.2099 10.4099 18.1338 10.5463C18.0577 10.6827 17.948 10.7974 17.8151 10.8795C17.6823 10.9616 17.5306 11.0084 17.3746 11.0154C17.2185 11.0224 17.0633 10.9895 16.9236 10.9197L12.75 8.83333V5.16667ZM3.58333 12.5H10.9167C11.4029 12.5 11.8692 12.3068 12.213 11.963C12.5568 11.6192 12.75 11.1529 12.75 10.6667V3.33333C12.75 2.8471 12.5568 2.38079 12.213 2.03697C11.8692 1.69315 11.4029 1.5 10.9167 1.5H3.58333C3.0971 1.5 2.63079 1.69315 2.28697 2.03697C1.94315 2.38079 1.75 2.8471 1.75 3.33333V10.6667C1.75 11.1529 1.94315 11.6192 2.28697 11.963C2.63079 12.3068 3.0971 12.5 3.58333 12.5Z" stroke="#8A98AC" stroke-width="2" stroke-linecap="round" stroke-linejoin="round"/>
</svg>
