<svg width="156" height="54" viewBox="0 0 156 54" fill="none" xmlns="http://www.w3.org/2000/svg">
<path fill-rule="evenodd" clip-rule="evenodd" d="M1.16016 18.1436V40.2816L20.2246 51.3315L39.3086 40.2816V18.1436L20.2246 7.09375" fill="#2268FF"/>
<path fill-rule="evenodd" clip-rule="evenodd" d="M20.2246 18.1406L1.16016 29.3057L20.2246 40.2787L39.3086 29.3057L20.2246 18.1406Z" fill="#2FC7FC"/>
<path d="M20.2246 29.2109L1.16016 40.2799L20.2246 51.3298L39.3086 40.2799L20.2246 29.2109Z" fill="#2EE7FC" fill-opacity="0.4"/>
<path fill-rule="evenodd" clip-rule="evenodd" d="M20.2246 7.09375L1.16016 18.1436L20.2246 29.2126L39.3086 18.1436L20.2246 7.09375Z" fill="#2EE7FC"/>
<path d="M63.2716 22.9208H60.8523V19.75H69.2136V22.9208H66.62V38.4674H62.4587L54.3684 24.6696V35.1813H56.7103V38.3521H48.5039V35.1813H51.0394V22.9208H48.5039V19.75H56.3813L63.2716 31.3763V22.9208Z" fill="#365BA7"/>
<path d="M76.3362 27.8454C75.5813 27.8454 75.0007 28.0568 74.5361 28.4795C74.091 28.9023 73.8006 29.5557 73.6845 30.4397H79.1233C79.0071 29.671 78.6973 29.0369 78.1751 28.5564C77.652 28.076 77.0326 27.8454 76.3362 27.8454ZM83.3231 32.7457H73.5877C73.6846 33.745 74.033 34.5329 74.6329 35.1094C75.2329 35.6859 75.9878 35.9742 76.9171 35.9742C77.9617 35.9742 78.9681 35.4553 79.9553 34.4369L83.1877 35.4746C82.4719 36.5315 81.6009 37.3386 80.5365 37.8575C79.4911 38.3956 78.2332 38.6454 76.8009 38.6454C75.3684 38.6454 74.091 38.3763 72.9878 37.8382C71.8845 37.3002 71.0329 36.5315 70.4136 35.5515C69.8136 34.5714 69.5039 33.3991 69.5039 32.0732C69.5039 30.7664 69.8136 29.5557 70.4523 28.4988C71.091 27.4418 71.9426 26.5963 73.0264 25.9813C74.1103 25.3856 75.291 25.0781 76.5493 25.0781C77.9235 25.0781 79.1233 25.3856 80.1488 26.0198C81.175 26.6539 81.9489 27.5379 82.5102 28.691C83.0332 29.8632 83.3039 31.2083 83.3231 32.7457Z" fill="#365BA7"/>
<path d="M91.8197 35.4325C92.6326 35.4325 93.2719 35.125 93.7361 34.4909C94.201 33.8567 94.4327 32.9535 94.4327 31.7813C94.4327 30.6859 94.201 29.8211 93.7361 29.2062C93.2719 28.5912 92.6326 28.2838 91.8006 28.2838C90.9686 28.2838 90.3301 28.5912 89.9042 29.2062C89.4782 29.8211 89.2649 30.7435 89.2649 31.9734C89.2649 33.0111 89.4973 33.8567 89.9623 34.4909C90.4265 35.125 91.0459 35.4325 91.8197 35.4325ZM98.6914 31.8581C98.6914 33.1457 98.3817 34.3179 97.7623 35.3557C97.1429 36.3934 96.33 37.2005 95.2846 37.777C94.2393 38.3535 93.0976 38.661 91.8396 38.661C90.5236 38.661 89.323 38.3727 88.2784 37.777C87.233 37.2005 86.4202 36.3741 85.8397 35.3557C85.2586 34.3179 84.9688 33.1649 84.9688 31.8581C84.9688 30.5706 85.2785 29.4176 85.878 28.3991C86.4783 27.3805 87.3103 26.5543 88.3556 25.9778C89.401 25.4012 90.5618 25.0938 91.8396 25.0938C93.1358 25.0938 94.3165 25.382 95.3619 25.9778C96.4072 26.5734 97.2201 27.3805 97.8005 28.3991C98.3817 29.4176 98.6914 30.5706 98.6914 31.8581Z" fill="#365BA7"/>
<path d="M108.155 25.3877V28.424H105.737V34.0931C105.737 34.4966 105.814 34.804 105.968 34.9962C106.123 35.1884 106.413 35.3037 106.859 35.3037C107.207 35.3037 107.652 35.2077 108.155 35.0347V37.9172C107.033 38.3592 105.988 38.5706 105.001 38.5706C103.858 38.5706 103.007 38.2824 102.446 37.7059C101.885 37.1293 101.594 36.3222 101.594 35.2845V28.4432H99.9492V25.4069H101.594V23.3891L105.737 20.4297V25.4069H108.155V25.3877Z" fill="#365BA7"/>
<path d="M116.515 27.8454C115.761 27.8454 115.18 28.0568 114.716 28.4795C114.27 28.9023 113.98 29.5557 113.864 30.4397H119.303C119.187 29.671 118.877 29.0369 118.355 28.5564C117.832 28.076 117.232 27.8454 116.515 27.8454ZM123.503 32.7457H113.767C113.864 33.745 114.212 34.5329 114.812 35.1094C115.413 35.6859 116.168 35.9742 117.097 35.9742C118.141 35.9742 119.148 35.4553 120.135 34.4369L123.367 35.4746C122.651 36.5315 121.78 37.3386 120.716 37.8575C119.671 38.3956 118.413 38.6454 116.98 38.6454C115.548 38.6454 114.27 38.3763 113.168 37.8382C112.064 37.3002 111.212 36.5315 110.593 35.5515C109.993 34.5714 109.684 33.3991 109.684 32.0732C109.684 30.7664 109.993 29.5557 110.632 28.4988C111.27 27.4226 112.122 26.5963 113.206 25.9813C114.29 25.3856 115.471 25.0781 116.729 25.0781C118.103 25.0781 119.303 25.3856 120.328 26.0198C121.355 26.6539 122.128 27.5379 122.69 28.691C123.251 29.844 123.483 31.2083 123.503 32.7457Z" fill="#365BA7"/>
<path d="M135.716 26.4636V25.3875H138.561V30.6338H135.619C134.922 29.2117 133.858 28.4815 132.444 28.4815C131.574 28.4815 130.858 28.7889 130.296 29.4231C129.735 30.0572 129.445 30.8452 129.445 31.7868C129.445 32.8245 129.716 33.6893 130.257 34.3618C130.8 35.0345 131.516 35.3612 132.425 35.3612C133.084 35.3612 133.703 35.1882 134.284 34.8231C134.864 34.458 135.348 33.9583 135.716 33.2857L138.948 34.7078C138.232 36.0337 137.381 37.033 136.374 37.6672C135.367 38.3013 134.013 38.6281 132.329 38.6281C130.122 38.6281 128.38 38.0323 127.084 36.8409C125.787 35.6494 125.148 33.9775 125.148 31.8636C125.148 30.5953 125.438 29.4615 126.039 28.443C126.638 27.4245 127.432 26.6366 128.438 26.0601C129.445 25.4836 130.548 25.1953 131.748 25.1953C133.142 25.2146 134.458 25.6374 135.716 26.4636Z" fill="#365BA7"/>
<path d="M150.077 25.0923C151.393 25.0923 152.399 25.4959 153.058 26.2838C153.715 27.0909 154.064 28.2439 154.064 29.7621V35.3543H156V38.3329H149.883V29.935C149.883 29.397 149.786 29.0126 149.574 28.782C149.38 28.5514 149.032 28.4361 148.567 28.4361C147.929 28.4361 147.193 28.7051 146.38 29.224V35.3543H148.2V38.3329H140.129V35.3543H142.238V22.7286H140.129V19.75H146.399V26.4375C147.716 25.5343 148.954 25.0923 150.077 25.0923Z" fill="#365BA7"/>
</svg>
